
<svg width="514" height="140" viewBox="0 0 514 140" fill="none" xmlns="http://www.w3.org/2000/svg">
<path d="M201.176 47.712V92H195.352V58.976L180.632 92H176.536L161.752 58.912V92H155.928V47.712H162.2L178.584 84.32L194.968 47.712H201.176ZM214.061 51.232C212.952 51.232 212.013 50.848 211.245 50.08C210.477 49.312 210.093 48.3733 210.093 47.264C210.093 46.1547 210.477 45.216 211.245 44.448C212.013 43.68 212.952 43.296 214.061 43.296C215.128 43.296 216.024 43.68 216.749 44.448C217.517 45.216 217.901 46.1547 217.901 47.264C217.901 48.3733 217.517 49.312 216.749 50.08C216.024 50.848 215.128 51.232 214.061 51.232ZM216.877 56.928V92H211.053V56.928H216.877ZM224.627 74.336C224.627 70.752 225.352 67.616 226.803 64.928C228.254 62.1973 230.238 60.0853 232.755 58.592C235.315 57.0987 238.174 56.352 241.331 56.352C244.062 56.352 246.6 56.992 248.947 58.272C251.294 59.5093 253.086 61.152 254.323 63.2V44.64H260.211V92H254.323V85.408C253.171 87.4987 251.464 89.2267 249.203 90.592C246.942 91.9147 244.296 92.576 241.267 92.576C238.152 92.576 235.315 91.808 232.755 90.272C230.238 88.736 228.254 86.5813 226.803 83.808C225.352 81.0347 224.627 77.8773 224.627 74.336ZM254.323 74.4C254.323 71.7547 253.79 69.4507 252.723 67.488C251.656 65.5253 250.206 64.032 248.371 63.008C246.579 61.9413 244.595 61.408 242.419 61.408C240.243 61.408 238.259 61.92 236.467 62.944C234.675 63.968 233.246 65.4613 232.179 67.424C231.112 69.3867 230.579 71.6907 230.579 74.336C230.579 77.024 231.112 79.3707 232.179 81.376C233.246 83.3387 234.675 84.8533 236.467 85.92C238.259 86.944 240.243 87.456 242.419 87.456C244.595 87.456 246.579 86.944 248.371 85.92C250.206 84.8533 251.656 83.3387 252.723 81.376C253.79 79.3707 254.323 77.0453 254.323 74.4ZM267.877 74.336C267.877 70.752 268.602 67.616 270.053 64.928C271.504 62.1973 273.488 60.0853 276.005 58.592C278.565 57.0987 281.424 56.352 284.581 56.352C287.312 56.352 289.85 56.992 292.197 58.272C294.544 59.5093 296.336 61.152 297.573 63.2V44.64H303.461V92H297.573V85.408C296.421 87.4987 294.714 89.2267 292.453 90.592C290.192 91.9147 287.546 92.576 284.517 92.576C281.402 92.576 278.565 91.808 276.005 90.272C273.488 88.736 271.504 86.5813 270.053 83.808C268.602 81.0347 267.877 77.8773 267.877 74.336ZM297.573 74.4C297.573 71.7547 297.04 69.4507 295.973 67.488C294.906 65.5253 293.456 64.032 291.621 63.008C289.829 61.9413 287.845 61.408 285.669 61.408C283.493 61.408 281.509 61.92 279.717 62.944C277.925 63.968 276.496 65.4613 275.429 67.424C274.362 69.3867 273.829 71.6907 273.829 74.336C273.829 77.024 274.362 79.3707 275.429 81.376C276.496 83.3387 277.925 84.8533 279.717 85.92C281.509 86.944 283.493 87.456 285.669 87.456C287.845 87.456 289.829 86.944 291.621 85.92C293.456 84.8533 294.906 83.3387 295.973 81.376C297.04 79.3707 297.573 77.0453 297.573 74.4ZM319.127 44.64V92H313.303V44.64H319.127ZM371.229 56.288C373.96 56.288 376.392 56.864 378.525 58.016C380.658 59.1253 382.344 60.8107 383.581 63.072C384.818 65.3333 385.437 68.0853 385.437 71.328V92H379.677V72.16C379.677 68.6613 378.802 65.9947 377.053 64.16C375.346 62.2827 373.021 61.344 370.077 61.344C367.048 61.344 364.637 62.3253 362.845 64.288C361.053 66.208 360.157 69.0027 360.157 72.672V92H354.397V72.16C354.397 68.6613 353.522 65.9947 351.773 64.16C350.066 62.2827 347.741 61.344 344.797 61.344C341.768 61.344 339.357 62.3253 337.565 64.288C335.773 66.208 334.877 69.0027 334.877 72.672V92H329.053V56.928H334.877V61.984C336.029 60.1493 337.565 58.7413 339.485 57.76C341.448 56.7787 343.602 56.288 345.949 56.288C348.893 56.288 351.496 56.9493 353.757 58.272C356.018 59.5947 357.704 61.536 358.813 64.096C359.794 61.6213 361.416 59.7013 363.677 58.336C365.938 56.9707 368.456 56.288 371.229 56.288ZM392.815 74.336C392.815 70.752 393.54 67.616 394.991 64.928C396.441 62.1973 398.425 60.0853 400.943 58.592C403.503 57.0987 406.34 56.352 409.455 56.352C412.527 56.352 415.193 57.0133 417.455 58.336C419.716 59.6587 421.401 61.3227 422.511 63.328V56.928H428.399V92H422.511V85.472C421.359 87.52 419.631 89.2267 417.327 90.592C415.065 91.9147 412.42 92.576 409.391 92.576C406.276 92.576 403.46 91.808 400.943 90.272C398.425 88.736 396.441 86.5813 394.991 83.808C393.54 81.0347 392.815 77.8773 392.815 74.336ZM422.511 74.4C422.511 71.7547 421.977 69.4507 420.911 67.488C419.844 65.5253 418.393 64.032 416.559 63.008C414.767 61.9413 412.783 61.408 410.607 61.408C408.431 61.408 406.447 61.92 404.655 62.944C402.863 63.968 401.433 65.4613 400.367 67.424C399.3 69.3867 398.767 71.6907 398.767 74.336C398.767 77.024 399.3 79.3707 400.367 81.376C401.433 83.3387 402.863 84.8533 404.655 85.92C406.447 86.944 408.431 87.456 410.607 87.456C412.783 87.456 414.767 86.944 416.559 85.92C418.393 84.8533 419.844 83.3387 420.911 81.376C421.977 79.3707 422.511 77.0453 422.511 74.4ZM455.329 56.288C459.595 56.288 463.051 57.5893 465.697 60.192C468.342 62.752 469.665 66.464 469.665 71.328V92H463.905V72.16C463.905 68.6613 463.03 65.9947 461.281 64.16C459.531 62.2827 457.142 61.344 454.113 61.344C451.041 61.344 448.587 62.304 446.753 64.224C444.961 66.144 444.065 68.9387 444.065 72.608V92H438.241V56.928H444.065V61.92C445.217 60.128 446.774 58.7413 448.737 57.76C450.742 56.7787 452.939 56.288 455.329 56.288Z" fill="black"/>
<path d="M201.176 47.712H201.476V47.412H201.176V47.712ZM201.176 92V92.3H201.476V92H201.176ZM195.352 92H195.052V92.3H195.352V92ZM195.352 58.976H195.652L195.078 58.8539L195.352 58.976ZM180.632 92V92.3H180.827L180.906 92.1221L180.632 92ZM176.536 92L176.262 92.1224L176.341 92.3H176.536V92ZM161.752 58.912L162.026 58.7896L161.452 58.912H161.752ZM161.752 92V92.3H162.052V92H161.752ZM155.928 92H155.628V92.3H155.928V92ZM155.928 47.712V47.412H155.628V47.712H155.928ZM162.2 47.712L162.474 47.5894L162.394 47.412H162.2V47.712ZM178.584 84.32L178.31 84.4426L178.584 85.0544L178.858 84.4426L178.584 84.32ZM194.968 47.712V47.412H194.774L194.694 47.5894L194.968 47.712ZM200.876 47.712V92H201.476V47.712H200.876ZM201.176 91.7H195.352V92.3H201.176V91.7ZM195.652 92V58.976H195.052V92H195.652ZM195.078 58.8539L180.358 91.8779L180.906 92.1221L195.626 59.0981L195.078 58.8539ZM180.632 91.7H176.536V92.3H180.632V91.7ZM176.81 91.8776L162.026 58.7896L161.478 59.0344L176.262 92.1224L176.81 91.8776ZM161.452 58.912V92H162.052V58.912H161.452ZM161.752 91.7H155.928V92.3H161.752V91.7ZM156.228 92V47.712H155.628V92H156.228ZM155.928 48.012H162.2V47.412H155.928V48.012ZM161.926 47.8345L178.31 84.4426L178.858 84.1974L162.474 47.5894L161.926 47.8345ZM178.858 84.4426L195.242 47.8345L194.694 47.5894L178.31 84.1974L178.858 84.4426ZM194.968 48.012H201.176V47.412H194.968V48.012ZM211.245 50.08L211.457 49.8679L211.457 49.8679L211.245 50.08ZM211.245 44.448L211.457 44.6601L211.457 44.6601L211.245 44.448ZM216.749 44.448L216.531 44.6541L216.537 44.6601L216.749 44.448ZM216.749 50.08L216.537 49.8678L216.531 49.874L216.749 50.08ZM216.877 56.928H217.177V56.628H216.877V56.928ZM216.877 92V92.3H217.177V92H216.877ZM211.053 92H210.753V92.3H211.053V92ZM211.053 56.928V56.628H210.753V56.928H211.053ZM214.061 50.932C213.029 50.932 212.168 50.5783 211.457 49.8679L211.033 50.2921C211.858 51.1177 212.874 51.532 214.061 51.532V50.932ZM211.457 49.8679C210.747 49.1575 210.393 48.2957 210.393 47.264H209.793C209.793 48.451 210.207 49.4665 211.033 50.2921L211.457 49.8679ZM210.393 47.264C210.393 46.2323 210.747 45.3705 211.457 44.6601L211.033 44.2359C210.207 45.0615 209.793 46.077 209.793 47.264H210.393ZM211.457 44.6601C212.168 43.9497 213.029 43.596 214.061 43.596V42.996C212.874 42.996 211.858 43.4103 211.033 44.2359L211.457 44.6601ZM214.061 43.596C215.046 43.596 215.863 43.9467 216.531 44.654L216.967 44.242C216.184 43.4133 215.209 42.996 214.061 42.996V43.596ZM216.537 44.6601C217.247 45.3705 217.601 46.2323 217.601 47.264H218.201C218.201 46.077 217.787 45.0615 216.961 44.2359L216.537 44.6601ZM217.601 47.264C217.601 48.2957 217.247 49.1575 216.537 49.8679L216.961 50.2921C217.787 49.4665 218.201 48.451 218.201 47.264H217.601ZM216.531 49.874C215.863 50.5813 215.046 50.932 214.061 50.932V51.532C215.209 51.532 216.184 51.1147 216.967 50.286L216.531 49.874ZM216.577 56.928V92H217.177V56.928H216.577ZM216.877 91.7H211.053V92.3H216.877V91.7ZM211.353 92V56.928H210.753V92H211.353ZM211.053 57.228H216.877V56.628H211.053V57.228ZM226.803 64.928L227.067 65.0705L227.068 65.0687L226.803 64.928ZM232.755 58.592L232.604 58.3329L232.602 58.334L232.755 58.592ZM248.947 58.272L248.803 58.5354L248.807 58.5374L248.947 58.272ZM254.323 63.2L254.066 63.3551L254.623 64.2767V63.2H254.323ZM254.323 44.64V44.34H254.023V44.64H254.323ZM260.211 44.64H260.511V44.34H260.211V44.64ZM260.211 92V92.3H260.511V92H260.211ZM254.323 92H254.023V92.3H254.323V92ZM254.323 85.408H254.623L254.06 85.2632L254.323 85.408ZM249.203 90.592L249.354 90.851L249.358 90.8488L249.203 90.592ZM232.755 90.272L232.599 90.5281L232.601 90.5292L232.755 90.272ZM226.803 83.808L227.069 83.669L227.069 83.669L226.803 83.808ZM248.371 63.008L248.217 63.2659L248.225 63.27L248.371 63.008ZM236.467 62.944L236.318 62.6835L236.318 62.6835L236.467 62.944ZM232.179 67.424L232.443 67.5673L232.443 67.5673L232.179 67.424ZM232.179 81.376L231.914 81.5169L231.915 81.5193L232.179 81.376ZM236.467 85.92L236.314 86.1778L236.318 86.1805L236.467 85.92ZM248.371 85.92L248.52 86.1805L248.522 86.1794L248.371 85.92ZM252.723 81.376L252.987 81.5193L252.988 81.5169L252.723 81.376ZM224.927 74.336C224.927 70.7931 225.644 67.7077 227.067 65.0705L226.539 64.7855C225.061 67.5243 224.327 70.7109 224.327 74.336H224.927ZM227.068 65.0687C228.494 62.3838 230.441 60.3137 232.908 58.85L232.602 58.334C230.035 59.857 228.013 62.0108 226.538 64.7873L227.068 65.0687ZM232.906 58.8511C235.417 57.3863 238.223 56.652 241.331 56.652V56.052C238.124 56.052 235.213 56.811 232.604 58.3329L232.906 58.8511ZM241.331 56.652C244.013 56.652 246.502 57.2799 248.803 58.5354L249.091 58.0086C246.699 56.7041 244.111 56.052 241.331 56.052V56.652ZM248.807 58.5374C251.111 59.7521 252.86 61.3588 254.066 63.3551L254.58 63.0449C253.311 60.9452 251.476 59.2666 249.087 58.0066L248.807 58.5374ZM254.623 63.2V44.64H254.023V63.2H254.623ZM254.323 44.94H260.211V44.34H254.323V44.94ZM259.911 44.64V92H260.511V44.64H259.911ZM260.211 91.7H254.323V92.3H260.211V91.7ZM254.623 92V85.408H254.023V92H254.623ZM254.06 85.2632C252.936 87.3029 251.269 88.9941 249.048 90.3352L249.358 90.8488C251.66 89.4592 253.406 87.6944 254.586 85.5528L254.06 85.2632ZM249.052 90.333C246.843 91.6249 244.252 92.276 241.267 92.276V92.876C244.341 92.876 247.04 92.2045 249.354 90.851L249.052 90.333ZM241.267 92.276C238.204 92.276 235.421 91.5215 232.909 90.0148L232.601 90.5292C235.209 92.0945 238.1 92.876 241.267 92.876V92.276ZM232.911 90.0159C230.443 88.51 228.496 86.3971 227.069 83.669L226.537 83.947C228.011 86.7655 230.032 88.962 232.599 90.5281L232.911 90.0159ZM227.069 83.669C225.643 80.9439 224.927 77.8353 224.927 74.336H224.327C224.327 77.9193 225.061 81.1254 226.537 83.947L227.069 83.669ZM254.623 74.4C254.623 71.7138 254.081 69.3588 252.987 67.3447L252.459 67.6313C253.498 69.5425 254.023 71.7955 254.023 74.4H254.623ZM252.987 67.3447C251.895 65.3355 250.405 63.7995 248.517 62.746L248.225 63.27C250.007 64.2645 251.418 65.7152 252.459 67.6313L252.987 67.3447ZM248.524 62.7502C246.684 61.6547 244.647 61.108 242.419 61.108V61.708C244.543 61.708 246.474 62.228 248.218 63.2658L248.524 62.7502ZM242.419 61.108C240.194 61.108 238.158 61.6322 236.318 62.6835L236.616 63.2045C238.36 62.2078 240.292 61.708 242.419 61.708V61.108ZM236.318 62.6835C234.474 63.7375 233.006 65.2733 231.915 67.2807L232.443 67.5673C233.485 65.6494 234.876 64.1985 236.616 63.2045L236.318 62.6835ZM231.915 67.2807C230.821 69.2948 230.279 71.6498 230.279 74.336H230.879C230.879 71.7315 231.404 69.4785 232.443 67.5673L231.915 67.2807ZM230.279 74.336C230.279 77.0641 230.821 79.4609 231.914 81.5169L232.444 81.2351C231.404 79.2805 230.879 76.9839 230.879 74.336H230.279ZM231.915 81.5193C233.006 83.5258 234.472 85.0816 236.314 86.1778L236.62 85.6622C234.878 84.6251 233.485 83.1515 232.443 81.2327L231.915 81.5193ZM236.318 86.1805C238.158 87.2318 240.194 87.756 242.419 87.756V87.156C240.292 87.156 238.36 86.6562 236.616 85.6595L236.318 86.1805ZM242.419 87.756C244.644 87.756 246.68 87.2318 248.52 86.1805L248.222 85.6595C246.478 86.6562 244.546 87.156 242.419 87.156V87.756ZM248.522 86.1794C250.407 85.0836 251.895 83.5276 252.987 81.5193L252.459 81.2327C251.418 83.1498 250.005 84.6231 248.22 85.6606L248.522 86.1794ZM252.988 81.5169C254.081 79.4615 254.623 77.0863 254.623 74.4H254.023C254.023 77.0043 253.498 79.2798 252.458 81.2351L252.988 81.5169ZM270.053 64.928L270.317 65.0705L270.318 65.0687L270.053 64.928ZM276.005 58.592L275.854 58.3329L275.852 58.334L276.005 58.592ZM292.197 58.272L292.053 58.5354L292.057 58.5374L292.197 58.272ZM297.573 63.2L297.316 63.3551L297.873 64.2767V63.2H297.573ZM297.573 44.64V44.34H297.273V44.64H297.573ZM303.461 44.64H303.761V44.34H303.461V44.64ZM303.461 92V92.3H303.761V92H303.461ZM297.573 92H297.273V92.3H297.573V92ZM297.573 85.408H297.873L297.31 85.2632L297.573 85.408ZM292.453 90.592L292.604 90.851L292.608 90.8488L292.453 90.592ZM276.005 90.272L275.849 90.5281L275.851 90.5292L276.005 90.272ZM270.053 83.808L270.319 83.669L270.319 83.669L270.053 83.808ZM291.621 63.008L291.467 63.2659L291.475 63.27L291.621 63.008ZM279.717 62.944L279.568 62.6835L279.568 62.6835L279.717 62.944ZM275.429 67.424L275.693 67.5673L275.693 67.5673L275.429 67.424ZM275.429 81.376L275.164 81.5169L275.165 81.5193L275.429 81.376ZM279.717 85.92L279.564 86.1778L279.568 86.1805L279.717 85.92ZM291.621 85.92L291.77 86.1805L291.772 86.1794L291.621 85.92ZM295.973 81.376L296.237 81.5193L296.238 81.5169L295.973 81.376ZM268.177 74.336C268.177 70.7931 268.894 67.7077 270.317 65.0705L269.789 64.7855C268.311 67.5243 267.577 70.7109 267.577 74.336H268.177ZM270.318 65.0687C271.744 62.3838 273.691 60.3137 276.158 58.85L275.852 58.334C273.285 59.857 271.263 62.0108 269.788 64.7873L270.318 65.0687ZM276.156 58.8511C278.667 57.3863 281.473 56.652 284.581 56.652V56.052C281.374 56.052 278.463 56.811 275.854 58.3329L276.156 58.8511ZM284.581 56.652C287.263 56.652 289.752 57.2799 292.053 58.5354L292.341 58.0086C289.949 56.7041 287.361 56.052 284.581 56.052V56.652ZM292.057 58.5374C294.361 59.7521 296.11 61.3588 297.316 63.3551L297.83 63.0449C296.561 60.9452 294.726 59.2666 292.337 58.0066L292.057 58.5374ZM297.873 63.2V44.64H297.273V63.2H297.873ZM297.573 44.94H303.461V44.34H297.573V44.94ZM303.161 44.64V92H303.761V44.64H303.161ZM303.461 91.7H297.573V92.3H303.461V91.7ZM297.873 92V85.408H297.273V92H297.873ZM297.31 85.2632C296.186 87.3029 294.519 88.9941 292.298 90.3352L292.608 90.8488C294.91 89.4592 296.656 87.6944 297.836 85.5528L297.31 85.2632ZM292.302 90.333C290.093 91.6249 287.502 92.276 284.517 92.276V92.876C287.591 92.876 290.29 92.2045 292.604 90.851L292.302 90.333ZM284.517 92.276C281.454 92.276 278.671 91.5215 276.159 90.0148L275.851 90.5292C278.459 92.0945 281.35 92.876 284.517 92.876V92.276ZM276.161 90.0159C273.693 88.51 271.746 86.3971 270.319 83.669L269.787 83.947C271.261 86.7655 273.282 88.962 275.849 90.5281L276.161 90.0159ZM270.319 83.669C268.893 80.9439 268.177 77.8353 268.177 74.336H267.577C267.577 77.9193 268.311 81.1254 269.787 83.947L270.319 83.669ZM297.873 74.4C297.873 71.7138 297.331 69.3588 296.237 67.3447L295.709 67.6313C296.748 69.5425 297.273 71.7955 297.273 74.4H297.873ZM296.237 67.3447C295.145 65.3355 293.655 63.7995 291.767 62.746L291.475 63.27C293.257 64.2645 294.668 65.7152 295.709 67.6313L296.237 67.3447ZM291.774 62.7502C289.934 61.6547 287.897 61.108 285.669 61.108V61.708C287.793 61.708 289.724 62.228 291.468 63.2658L291.774 62.7502ZM285.669 61.108C283.444 61.108 281.408 61.6322 279.568 62.6835L279.866 63.2045C281.61 62.2078 283.542 61.708 285.669 61.708V61.108ZM279.568 62.6835C277.724 63.7375 276.256 65.2733 275.165 67.2807L275.693 67.5673C276.735 65.6494 278.126 64.1985 279.866 63.2045L279.568 62.6835ZM275.165 67.2807C274.071 69.2948 273.529 71.6498 273.529 74.336H274.129C274.129 71.7315 274.654 69.4785 275.693 67.5673L275.165 67.2807ZM273.529 74.336C273.529 77.0641 274.071 79.4609 275.164 81.5169L275.694 81.2351C274.654 79.2805 274.129 76.9839 274.129 74.336H273.529ZM275.165 81.5193C276.256 83.5258 277.722 85.0816 279.564 86.1778L279.87 85.6622C278.128 84.6251 276.735 83.1515 275.693 81.2327L275.165 81.5193ZM279.568 86.1805C281.408 87.2318 283.444 87.756 285.669 87.756V87.156C283.542 87.156 281.61 86.6562 279.866 85.6595L279.568 86.1805ZM285.669 87.756C287.894 87.756 289.93 87.2318 291.77 86.1805L291.472 85.6595C289.728 86.6562 287.796 87.156 285.669 87.156V87.756ZM291.772 86.1794C293.657 85.0836 295.145 83.5276 296.237 81.5193L295.709 81.2327C294.668 83.1498 293.255 84.6231 291.47 85.6606L291.772 86.1794ZM296.238 81.5169C297.331 79.4615 297.873 77.0863 297.873 74.4H297.273C297.273 77.0043 296.748 79.2798 295.708 81.2351L296.238 81.5169ZM319.127 44.64H319.427V44.34H319.127V44.64ZM319.127 92V92.3H319.427V92H319.127ZM313.303 92H313.003V92.3H313.303V92ZM313.303 44.64V44.34H313.003V44.64H313.303ZM318.827 44.64V92H319.427V44.64H318.827ZM319.127 91.7H313.303V92.3H319.127V91.7ZM313.603 92V44.64H313.003V92H313.603ZM313.303 44.94H319.127V44.34H313.303V44.94ZM378.525 58.016L378.382 58.28L378.387 58.2822L378.525 58.016ZM383.581 63.072L383.318 63.216L383.318 63.216L383.581 63.072ZM385.437 92V92.3H385.737V92H385.437ZM379.677 92H379.377V92.3H379.677V92ZM377.053 64.16L376.831 64.3619L376.836 64.367L377.053 64.16ZM362.845 64.288L363.064 64.4927L363.067 64.4903L362.845 64.288ZM360.157 92V92.3H360.457V92H360.157ZM354.397 92H354.097V92.3H354.397V92ZM351.773 64.16L351.551 64.3619L351.556 64.367L351.773 64.16ZM337.565 64.288L337.784 64.4927L337.787 64.4903L337.565 64.288ZM334.877 92V92.3H335.177V92H334.877ZM329.053 92H328.753V92.3H329.053V92ZM329.053 56.928V56.628H328.753V56.928H329.053ZM334.877 56.928H335.177V56.628H334.877V56.928ZM334.877 61.984H334.577V63.0259L335.131 62.1435L334.877 61.984ZM339.485 57.76L339.351 57.4917L339.348 57.4929L339.485 57.76ZM353.757 58.272L353.606 58.531L353.606 58.531L353.757 58.272ZM358.813 64.096L358.538 64.2153L358.825 64.8789L359.092 64.2066L358.813 64.096ZM363.677 58.336L363.832 58.5928L363.832 58.5928L363.677 58.336ZM371.229 56.588C373.916 56.588 376.298 57.1545 378.382 58.28L378.668 57.752C376.485 56.5735 374.003 55.988 371.229 55.988V56.588ZM378.387 58.2822C380.463 59.362 382.107 61.0029 383.318 63.216L383.844 62.928C382.58 60.6184 380.853 58.8886 378.663 57.7498L378.387 58.2822ZM383.318 63.216C384.526 65.4232 385.137 68.1229 385.137 71.328H385.737C385.737 68.0477 385.111 65.2435 383.844 62.928L383.318 63.216ZM385.137 71.328V92H385.737V71.328H385.137ZM385.437 91.7H379.677V92.3H385.437V91.7ZM379.977 92V72.16H379.377V92H379.977ZM379.977 72.16C379.977 68.6139 379.09 65.8617 377.27 63.953L376.836 64.367C378.515 66.1276 379.377 68.7087 379.377 72.16H379.977ZM377.275 63.9582C375.502 62.0081 373.091 61.044 370.077 61.044V61.644C372.951 61.644 375.191 62.5572 376.831 64.3618L377.275 63.9582ZM370.077 61.044C366.976 61.044 364.481 62.0518 362.623 64.0857L363.067 64.4903C364.793 62.5989 367.119 61.644 370.077 61.644V61.044ZM362.626 64.0833C360.764 66.0776 359.857 68.957 359.857 72.672H360.457C360.457 69.0483 361.342 66.3384 363.064 64.4927L362.626 64.0833ZM359.857 72.672V92H360.457V72.672H359.857ZM360.157 91.7H354.397V92.3H360.157V91.7ZM354.697 92V72.16H354.097V92H354.697ZM354.697 72.16C354.697 68.6139 353.81 65.8617 351.99 63.953L351.556 64.367C353.235 66.1276 354.097 68.7087 354.097 72.16H354.697ZM351.995 63.9582C350.222 62.0081 347.811 61.044 344.797 61.044V61.644C347.671 61.644 349.911 62.5572 351.551 64.3618L351.995 63.9582ZM344.797 61.044C341.696 61.044 339.201 62.0518 337.343 64.0857L337.787 64.4903C339.513 62.5989 341.839 61.644 344.797 61.644V61.044ZM337.346 64.0833C335.484 66.0776 334.577 68.957 334.577 72.672H335.177C335.177 69.0483 336.062 66.3384 337.784 64.4927L337.346 64.0833ZM334.577 72.672V92H335.177V72.672H334.577ZM334.877 91.7H329.053V92.3H334.877V91.7ZM329.353 92V56.928H328.753V92H329.353ZM329.053 57.228H334.877V56.628H329.053V57.228ZM334.577 56.928V61.984H335.177V56.928H334.577ZM335.131 62.1435C336.254 60.3544 337.75 58.9837 339.622 58.0271L339.348 57.4929C337.38 58.4989 335.804 59.9442 334.623 61.8245L335.131 62.1435ZM339.619 58.0283C341.537 57.0693 343.646 56.588 345.949 56.588V55.988C343.559 55.988 341.358 56.4881 339.351 57.4917L339.619 58.0283ZM345.949 56.588C348.847 56.588 351.396 57.2384 353.606 58.531L353.908 58.013C351.596 56.6603 348.94 55.988 345.949 55.988V56.588ZM353.606 58.531C355.808 59.8193 357.452 61.7098 358.538 64.2153L359.088 63.9767C357.955 61.3622 356.229 59.3701 353.908 58.013L353.606 58.531ZM359.092 64.2066C360.049 61.7924 361.627 59.924 363.832 58.5928L363.522 58.0792C361.204 59.4787 359.539 61.4503 358.534 63.9854L359.092 64.2066ZM363.832 58.5928C366.044 57.2572 368.507 56.588 371.229 56.588V55.988C368.404 55.988 365.832 56.6842 363.522 58.0792L363.832 58.5928ZM394.991 64.928L395.255 65.0705L395.255 65.0687L394.991 64.928ZM400.943 58.592L400.791 58.3329L400.789 58.334L400.943 58.592ZM417.455 58.336L417.303 58.595L417.303 58.595L417.455 58.336ZM422.511 63.328L422.248 63.4732L422.811 63.328H422.511ZM422.511 56.928V56.628H422.211V56.928H422.511ZM428.399 56.928H428.699V56.628H428.399V56.928ZM428.399 92V92.3H428.699V92H428.399ZM422.511 92H422.211V92.3H422.511V92ZM422.511 85.472H422.811V84.3267L422.249 85.3249L422.511 85.472ZM417.327 90.592L417.478 90.851L417.479 90.8501L417.327 90.592ZM400.943 90.272L400.786 90.5281L400.786 90.5281L400.943 90.272ZM394.991 83.808L395.256 83.669L395.256 83.669L394.991 83.808ZM416.559 63.008L416.405 63.2659L416.412 63.27L416.559 63.008ZM404.655 62.944L404.506 62.6835L404.506 62.6835L404.655 62.944ZM400.367 67.424L400.63 67.5673L400.63 67.5673L400.367 67.424ZM400.367 81.376L400.102 81.5169L400.103 81.5193L400.367 81.376ZM404.655 85.92L404.501 86.1778L404.506 86.1805L404.655 85.92ZM416.559 85.92L416.707 86.1805L416.709 86.1794L416.559 85.92ZM420.911 81.376L421.174 81.5193L421.175 81.5169L420.911 81.376ZM393.115 74.336C393.115 70.7931 393.831 67.7077 395.255 65.0705L394.726 64.7855C393.248 67.5243 392.515 70.7109 392.515 74.336H393.115ZM395.255 65.0687C396.682 62.3838 398.628 60.3137 401.096 58.85L400.789 58.334C398.222 59.857 396.201 62.0108 394.726 64.7873L395.255 65.0687ZM401.094 58.8511C403.605 57.3859 406.39 56.652 409.455 56.652V56.052C406.29 56.052 403.4 56.8114 400.791 58.3329L401.094 58.8511ZM409.455 56.652C412.483 56.652 415.095 57.3035 417.303 58.595L417.606 58.077C415.291 56.7232 412.57 56.052 409.455 56.052V56.652ZM417.303 58.595C419.525 59.8944 421.168 61.5215 422.248 63.4732L422.773 63.1828C421.634 61.1238 419.907 59.423 417.606 58.077L417.303 58.595ZM422.811 63.328V56.928H422.211V63.328H422.811ZM422.511 57.228H428.399V56.628H422.511V57.228ZM428.099 56.928V92H428.699V56.928H428.099ZM428.399 91.7H422.511V92.3H428.399V91.7ZM422.811 92V85.472H422.211V92H422.811ZM422.249 85.3249C421.126 87.3209 419.439 88.9916 417.174 90.3339L417.479 90.8501C419.822 89.4617 421.591 87.7191 422.772 85.6191L422.249 85.3249ZM417.175 90.333C414.966 91.6249 412.375 92.276 409.391 92.276V92.876C412.465 92.876 415.164 92.2045 417.478 90.851L417.175 90.333ZM409.391 92.276C406.328 92.276 403.566 91.5216 401.099 90.0159L400.786 90.5281C403.353 92.0944 406.224 92.876 409.391 92.876V92.276ZM401.099 90.0159C398.631 88.51 396.683 86.3971 395.256 83.669L394.725 83.947C396.199 86.7655 398.22 88.962 400.786 90.5281L401.099 90.0159ZM395.256 83.669C393.831 80.9439 393.115 77.8353 393.115 74.336H392.515C392.515 77.9193 393.249 81.1254 394.725 83.947L395.256 83.669ZM422.811 74.4C422.811 71.7138 422.269 69.3588 421.174 67.3447L420.647 67.6313C421.686 69.5425 422.211 71.7955 422.211 74.4H422.811ZM421.174 67.3447C420.082 65.3355 418.592 63.7995 416.705 62.746L416.412 63.27C418.194 64.2645 419.606 65.7152 420.647 67.6313L421.174 67.3447ZM416.712 62.7502C414.871 61.6547 412.834 61.108 410.607 61.108V61.708C412.731 61.708 414.662 62.228 416.405 63.2658L416.712 62.7502ZM410.607 61.108C408.381 61.108 406.345 61.6322 404.506 62.6835L404.803 63.2045C406.548 62.2078 408.48 61.708 410.607 61.708V61.108ZM404.506 62.6835C402.661 63.7375 401.194 65.2733 400.103 67.2807L400.63 67.5673C401.672 65.6494 403.064 64.1985 404.803 63.2045L404.506 62.6835ZM400.103 67.2807C399.008 69.2948 398.467 71.6498 398.467 74.336H399.067C399.067 71.7315 399.591 69.4785 400.63 67.5673L400.103 67.2807ZM398.467 74.336C398.467 77.0641 399.008 79.4609 400.102 81.5169L400.631 81.2351C399.592 79.2805 399.067 76.9839 399.067 74.336H398.467ZM400.103 81.5193C401.193 83.5258 402.659 85.0816 404.501 86.1778L404.808 85.6622C403.066 84.6251 401.673 83.1515 400.63 81.2327L400.103 81.5193ZM404.506 86.1805C406.345 87.2318 408.381 87.756 410.607 87.756V87.156C408.48 87.156 406.548 86.6562 404.803 85.6595L404.506 86.1805ZM410.607 87.756C412.832 87.756 414.868 87.2318 416.707 86.1805L416.41 85.6595C414.665 86.6562 412.733 87.156 410.607 87.156V87.756ZM416.709 86.1794C418.594 85.0836 420.083 83.5276 421.174 81.5193L420.647 81.2327C419.605 83.1498 418.192 84.6231 416.408 85.6606L416.709 86.1794ZM421.175 81.5169C422.269 79.4615 422.811 77.0863 422.811 74.4H422.211C422.211 77.0043 421.686 79.2798 420.646 81.2351L421.175 81.5169ZM465.697 60.192L465.486 60.4059L465.488 60.4076L465.697 60.192ZM469.665 92V92.3H469.965V92H469.665ZM463.905 92H463.605V92.3H463.905V92ZM461.281 64.16L461.061 64.3645L461.063 64.367L461.281 64.16ZM446.753 64.224L446.536 64.0167L446.533 64.0193L446.753 64.224ZM444.065 92V92.3H444.365V92H444.065ZM438.241 92H437.941V92.3H438.241V92ZM438.241 56.928V56.628H437.941V56.928H438.241ZM444.065 56.928H444.365V56.628H444.065V56.928ZM444.065 61.92H443.765V62.9414L444.317 62.0822L444.065 61.92ZM448.737 57.76L448.605 57.4905L448.602 57.4917L448.737 57.76ZM455.329 56.588C459.529 56.588 462.905 57.8667 465.486 60.4058L465.907 59.9781C463.197 57.3119 459.661 55.988 455.329 55.988V56.588ZM465.488 60.4076C468.058 62.8946 469.365 66.5181 469.365 71.328H469.965C469.965 66.4099 468.626 62.6094 465.905 59.9764L465.488 60.4076ZM469.365 71.328V92H469.965V71.328H469.365ZM469.665 91.7H463.905V92.3H469.665V91.7ZM464.205 92V72.16H463.605V92H464.205ZM464.205 72.16C464.205 68.6139 463.318 65.8617 461.498 63.953L461.063 64.367C462.742 66.1276 463.605 68.7087 463.605 72.16H464.205ZM461.5 63.9555C459.684 62.0062 457.209 61.044 454.113 61.044V61.644C457.075 61.644 459.379 62.5591 461.061 64.3645L461.5 63.9555ZM454.113 61.044C450.973 61.044 448.436 62.0281 446.536 64.0167L446.969 64.4313C448.738 62.5799 451.108 61.644 454.113 61.644V61.044ZM446.533 64.0193C444.672 66.0136 443.765 68.893 443.765 72.608H444.365C444.365 68.9843 445.249 66.2744 446.972 64.4287L446.533 64.0193ZM443.765 72.608V92H444.365V72.608H443.765ZM444.065 91.7H438.241V92.3H444.065V91.7ZM438.541 92V56.928H437.941V92H438.541ZM438.241 57.228H444.065V56.628H438.241V57.228ZM443.765 56.928V61.92H444.365V56.928H443.765ZM444.317 62.0822C445.439 60.337 446.955 58.9863 448.871 58.0283L448.602 57.4917C446.593 58.4964 444.994 59.919 443.812 61.7578L444.317 62.0822ZM448.868 58.0295C450.83 57.0696 452.982 56.588 455.329 56.588V55.988C452.897 55.988 450.654 56.4877 448.605 57.4905L448.868 58.0295Z" fill="black"/>
<g filter="url(#filter0_d_30_2)">
<path d="M81 97.5L95 43H80.5L66.5 97.5H81Z" fill="black"/>
<path d="M81 97.5L95 43H80.5L66.5 97.5H81Z" stroke="black"/>
</g>
<g filter="url(#filter1_d_30_2)">
<path d="M109.5 97.5L123.5 43H109L95 97.5H109.5Z" fill="black"/>
<path d="M109.5 97.5L123.5 43H109L95 97.5H109.5Z" stroke="black"/>
</g>
<g filter="url(#filter2_d_30_2)">
<path d="M52.5 97.5L66.5 43H52L38 97.5H52.5Z" fill="black"/>
<path d="M52.5 97.5L66.5 43H52L38 97.5H52.5Z" stroke="black"/>
</g>
<defs>
<filter id="filter0_d_30_2" x="61.8555" y="42.5" width="37.7891" height="63.5" filterUnits="userSpaceOnUse" color-interpolation-filters="sRGB">
<feFlood flood-opacity="0" result="BackgroundImageFix"/>
<feColorMatrix in="SourceAlpha" type="matrix" values="0 0 0 0 0 0 0 0 0 0 0 0 0 0 0 0 0 0 127 0" result="hardAlpha"/>
<feOffset dy="4"/>
<feGaussianBlur stdDeviation="2"/>
<feComposite in2="hardAlpha" operator="out"/>
<feColorMatrix type="matrix" values="0 0 0 0 0 0 0 0 0 0 0 0 0 0 0 0 0 0 0.25 0"/>
<feBlend mode="normal" in2="BackgroundImageFix" result="effect1_dropShadow_30_2"/>
<feBlend mode="normal" in="SourceGraphic" in2="effect1_dropShadow_30_2" result="shape"/>
</filter>
<filter id="filter1_d_30_2" x="90.3555" y="42.5" width="37.7891" height="63.5" filterUnits="userSpaceOnUse" color-interpolation-filters="sRGB">
<feFlood flood-opacity="0" result="BackgroundImageFix"/>
<feColorMatrix in="SourceAlpha" type="matrix" values="0 0 0 0 0 0 0 0 0 0 0 0 0 0 0 0 0 0 127 0" result="hardAlpha"/>
<feOffset dy="4"/>
<feGaussianBlur stdDeviation="2"/>
<feComposite in2="hardAlpha" operator="out"/>
<feColorMatrix type="matrix" values="0 0 0 0 0 0 0 0 0 0 0 0 0 0 0 0 0 0 0.25 0"/>
<feBlend mode="normal" in2="BackgroundImageFix" result="effect1_dropShadow_30_2"/>
<feBlend mode="normal" in="SourceGraphic" in2="effect1_dropShadow_30_2" result="shape"/>
</filter>
<filter id="filter2_d_30_2" x="33.3555" y="42.5" width="37.7891" height="63.5" filterUnits="userSpaceOnUse" color-interpolation-filters="sRGB">
<feFlood flood-opacity="0" result="BackgroundImageFix"/>
<feColorMatrix in="SourceAlpha" type="matrix" values="0 0 0 0 0 0 0 0 0 0 0 0 0 0 0 0 0 0 127 0" result="hardAlpha"/>
<feOffset dy="4"/>
<feGaussianBlur stdDeviation="2"/>
<feComposite in2="hardAlpha" operator="out"/>
<feColorMatrix type="matrix" values="0 0 0 0 0 0 0 0 0 0 0 0 0 0 0 0 0 0 0.25 0"/>
<feBlend mode="normal" in2="BackgroundImageFix" result="effect1_dropShadow_30_2"/>
<feBlend mode="normal" in="SourceGraphic" in2="effect1_dropShadow_30_2" result="shape"/>
</filter>
</defs>
</svg>

